<?xml version="1.0" encoding="utf-8"?>
<!-- Generator: Adobe Illustrator 21.1.0, SVG Export Plug-In . SVG Version: 6.00 Build 0)  -->
<svg version="1.1" id="Layer_1" xmlns="http://www.w3.org/2000/svg" xmlns:xlink="http://www.w3.org/1999/xlink" x="0px" y="0px"
	 viewBox="0 0 212.5 237.5" style="enable-background:new 0 0 212.5 237.5;" xml:space="preserve">
<style type="text/css">
	.st0{display:none;}
	.st1{display:none;fill:#FFFFFF;}
	.st2{fill:#FFFFFF;}
	.st3{fill:url(#SVGID_1_);}
	.st4{fill:url(#SVGID_2_);}
	.st5{fill:url(#SVGID_3_);}
	.st6{fill:url(#SVGID_4_);}
	.st7{fill:url(#SVGID_5_);}
	.st8{fill:#333333;}
	.st9{fill:url(#SVGID_6_);}
	.st10{fill:url(#SVGID_7_);}
	.st11{fill:url(#SVGID_8_);}
	.st12{fill:url(#SVGID_9_);}
	.st13{fill:url(#SVGID_10_);}
	.st14{fill:#493689;}
	.st15{fill:url(#SVGID_11_);}
	.st16{fill:url(#SVGID_12_);}
	.st17{fill:url(#SVGID_13_);}
	.st18{fill:url(#SVGID_14_);}
	.st19{fill:url(#SVGID_15_);}
	.st20{fill:url(#SVGID_16_);}
	.st21{fill:url(#SVGID_17_);}
	.st22{fill:url(#SVGID_18_);}
	.st23{fill:url(#SVGID_19_);}
	.st24{fill:url(#SVGID_20_);}
</style>
<rect x="-11182.1" y="-8310.6" class="st0" width="16472.6" height="16680.6"/>
<path class="st2" d="M50.6,100.1l73.5-28l23.5-8.9L91.5,43.1L48.6,59.4V20.2L5.9,4.4v86.3c0,6.2,1.4,12.2,4.3,17.7c0,0,0,0.1,0,0.1
	c7.5,14.1,16.7,26.9,27.4,37.9c0,0,0,0.1,0,0.1c0.8,0.8,1.5,1.5,2.3,2.2c3.1,3.1,6.3,6,9.6,8.8c18.9,15.8,41.1,26.7,65.3,31.1
	c3.1,0.7,6.2,1.3,9.4,1.8c11.9-8.9,21.1-21.4,25.9-35.8c-14.6-1.7-27.8-4.7-38.9-8.5C86.5,137.6,65.3,121.3,50.6,100.1z"/>
<path class="st2" d="M207.2,39.8l-34-12.2c-14.7-5.3-30.7-5.3-45.4,0l-21.3,7.6l58,20.8L207.2,39.8L207.2,39.8z"/>
<g>
	<path class="st2" d="M164.8,69.4v90.6c0,15.1-8.3,29.6-20.1,42.6c-10.6,11.6-24.4,22.3-37.6,30.8c0.1,0,0.4-0.1,0.5-0.1
		c5.7-1.3,34.3-14.3,59.5-33.6c21.5-16.5,40.4-37.6,40.4-60V52.9L164.8,69.4z"/>
</g>
<circle class="st2" cx="126.8" cy="111.2" r="29.6"/>
<path class="st2" d="M7.3,117.2c-0.2-0.7-1.3-0.5-1.3,0.2v22.4c0,49.4,92.4,92.6,100.4,93.7c-2.2-1.4-4.3-2.9-6.5-4.4
	c-7.5-4.4-14.8-9.4-21.8-14.8C44.1,188,20.2,153.8,7.3,117.2z"/>
</svg>
